HIERARCHY
ROOT root
{
	OFFSET	0	13.1	24.9
	CHANNELS 6  Xposition Yposition Zposition Xrotation Yrotation Zrotation
	JOINT spine_1
	{
		OFFSET	0	9.99999	0
		CHANNELS 3  Xrotation Yrotation Zrotation
		JOINT spine_2
		{
			OFFSET	0	112	-10
			CHANNELS 3  Xrotation Yrotation Zrotation
			JOINT spine_3
			{
				OFFSET	0	206.5	19.3
				CHANNELS 3  Xrotation Yrotation Zrotation
				JOINT spine_4
				{
					OFFSET	0	110.4	14.6
					CHANNELS 3  Xrotation Yrotation Zrotation
					JOINT neck_1
					{
						OFFSET	0	71.8	-50.3
						CHANNELS 3  Xrotation Yrotation Zrotation
						JOINT neck_2
						{
							OFFSET	0	86.2	-25.8
							CHANNELS 3  Xrotation Yrotation Zrotation
							JOINT head_ee
							{
								OFFSET	0	179.8	-8.7
								CHANNELS 3  Xrotation Yrotation Zrotation
								End Site
								{
									OFFSET	1	0	0
								}
							}
						}
					}
					JOINT left_clavicle
					{
						OFFSET	-43.2	22.4	-70.8
						CHANNELS 3  Xrotation Yrotation Zrotation
						JOINT left_shoulder
						{
							OFFSET	-93.9	-5.79999	48.7
							CHANNELS 3  Xrotation Yrotation Zrotation
							JOINT left_elbow
							{
								OFFSET	-291.4	-30.8	15.2
								CHANNELS 3  Xrotation Yrotation Zrotation
								JOINT left_lowarm_twist
								{
									OFFSET	-110.7	-3.89999	13.6
									CHANNELS 3  Xrotation Yrotation Zrotation
									JOINT left_hand
									{
										OFFSET	-110.7	-3.89999	13.6
										CHANNELS 3  Xrotation Yrotation Zrotation
										JOINT left_ee
										{
											OFFSET	-80.8	-5.10001	12.1
											CHANNELS 3  Xrotation Yrotation Zrotation
											End Site
											{
												OFFSET	1	0	0
											}
										}
									}
								}
							}
						}
					}
					JOINT right_clavicle
					{
						OFFSET	43.2	22.4	-70.8
						CHANNELS 3  Xrotation Yrotation Zrotation
						JOINT right_shoulder
						{
							OFFSET	93.9	-5.79999	48.7
							CHANNELS 3  Xrotation Yrotation Zrotation
							JOINT right_elbow
							{
								OFFSET	291.4	-30.8	15.2
								CHANNELS 3  Xrotation Yrotation Zrotation
								JOINT right_lowarm_twist
								{
									OFFSET	110.7	-3.89999	13.6
									CHANNELS 3  Xrotation Yrotation Zrotation
									JOINT right_hand
									{
										OFFSET	110.7	-3.89999	13.6
										CHANNELS 3  Xrotation Yrotation Zrotation
										JOINT right_ee
										{
											OFFSET	80.8	-5.10001	12.1
											CHANNELS 3  Xrotation Yrotation Zrotation
											End Site
											{
												OFFSET	1	0	0
											}
										}
									}
								}
							}
						}
					}
				}
			}
		}
	}
	JOINT left_hip
	{
		OFFSET	-82.8	-127.5	0.300001
		CHANNELS 3  Xrotation Yrotation Zrotation
		JOINT left_knee
		{
			OFFSET	-28.2	-396.7	2.2
			CHANNELS 3  Xrotation Yrotation Zrotation
			JOINT left_ankle
			{
				OFFSET	-11.7	-411.3	35.4
				CHANNELS 3  Xrotation Yrotation Zrotation
				JOINT left_toes
				{
					OFFSET	0	-60	-88.6
					CHANNELS 3  Xrotation Yrotation Zrotation
					JOINT left_foot_ee
					{
						OFFSET	-22.5	-16.5	-42.2
						CHANNELS 3  Xrotation Yrotation Zrotation
						End Site
						{
							OFFSET	1	0	0
						}
					}
				}
			}
		}
	}
	JOINT right_hip
	{
		OFFSET	82.8	-127.5	0.300001
		CHANNELS 3  Xrotation Yrotation Zrotation
		JOINT right_knee
		{
			OFFSET	28.2	-396.7	2.2
			CHANNELS 3  Xrotation Yrotation Zrotation
			JOINT right_ankle
			{
				OFFSET	11.7	-411.3	35.4
				CHANNELS 3  Xrotation Yrotation Zrotation
				JOINT right_toes
				{
					OFFSET	0	-60	-88.6
					CHANNELS 3  Xrotation Yrotation Zrotation
					JOINT right_foot_ee
					{
						OFFSET	22.5	-16.5	-42.2
						CHANNELS 3  Xrotation Yrotation Zrotation
						End Site
						{
							OFFSET	1	0	0
						}
					}
				}
			}
		}
	}
}
MOTION
Frames: 8
Frame Time: 0.02
2912.11424067 699.982 -1897.56543613 -2.09417730081 29.5019625992 1.42297850271 1.67597 0.122891 0.148499 1.67597 0.113192 0.156018 1.67629 0.0829978 0.173969 1.67626 0.109431 0.158678 -1.63039 3.08014 -0.791308 -1.60472 6.17982 -0.445765 -0.0 0.0 -0.0 4.97441 -4.32957 9.43893 11.0291 15.2195 66.7739 1.01225 -26.6305 0.239577 41.5532 -0.432509 -5.17584 -0.325846 -2.22013 -3.12656 -0.0 0.0 -0.0 8.75653 10.362 -17.1262 -12.8868 -18.3287 -65.2708 0.69077 18.8903 -0.114917 69.6803 2.70726 7.92454 5.06885 -17.8892 -42.2802 0.0 0.0 0.0 24.7723 -8.63793 5.07196 -35.2899 -0.194618 5.32774 26.2532 -1.24301 -3.50664 -18.9904 0.0 0.0 -0.0 0.0 -0.0 31.8977 15.1274 0.221416 -65.434 2.81444 -9.09573 36.7716 21.2695 5.10446 26.6841 -0.0 -0.0 0.0 0.0 0.0 
2895.31506506 703.05 -1906.93290647 -1.64668367311 30.5730519813 1.30224589017 1.70733 0.15932 0.0790361 1.70732 0.153968 0.0890139 1.70756 0.135319 0.115405 1.70758 0.151847 0.0925852 -2.6534 3.73639 0.0809109 -2.63321 6.71193 0.608312 -0.0 0.0 -0.0 4.88579 -4.38699 9.25752 11.1586 14.0682 66.4242 1.17689 -30.2409 0.318009 42.3753 -0.478544 -5.2704 -0.164394 -3.27979 -2.4936 -0.0 0.0 -0.0 8.90404 8.10245 -17.4867 -14.3406 -19.0364 -64.5208 0.6456 17.735 -0.100724 69.5574 2.69457 7.91518 4.37679 -13.7864 -35.5717 0.0 0.0 0.0 21.616 -6.3017 4.03723 -32.9044 -0.0780922 4.98035 23.6171 -4.72891 -3.23367 -21.779 0.0 0.0 -0.0 0.0 -0.0 36.0319 14.4182 1.05081 -63.7877 2.62257 -8.92908 34.5405 23.8545 4.99559 27.1866 -0.0 -0.0 0.0 0.0 0.0 
2869.52932163 703.024 -1908.58508507 -1.74178976217 33.3665892112 1.55005048544 1.81237 0.169169 0.0693539 1.81236 0.164413 0.079978 1.81259 0.147425 0.108138 1.81261 0.162653 0.0834976 -3.40199 4.35881 0.709955 -3.3822 7.39129 1.39082 -0.0 0.0 -0.0 4.96571 -3.71351 9.4492 12.2815 12.5327 65.7452 1.34141 -33.6021 0.405039 41.8707 -0.450122 -5.21243 -0.00765817 -4.45467 -1.93844 -0.0 0.0 -0.0 8.54263 4.80275 -16.7417 -14.9919 -20.8446 -64.4064 0.606816 16.7309 -0.0892336 68.1897 2.55472 7.80918 4.60938 -13.8677 -37.4629 0.0 0.0 0.0 19.9609 -7.66428 3.96801 -33.6077 -0.110941 5.08326 24.8916 -8.2931 -3.43396 -21.3495 0.0 0.0 -0.0 0.0 -0.0 37.7212 12.6571 3.07164 -62.1355 2.43493 -8.75641 32.9233 25.3314 4.89259 27.5319 -0.0 -0.0 0.0 0.0 0.0 
2867.32846363 703.024 -1905.72985985 -1.75254130116 33.8964655832 1.56946265142 1.81237 0.169169 0.0693539 1.81236 0.164413 0.079978 1.81259 0.147425 0.108138 1.81261 0.162653 0.0834976 -3.40199 4.35881 0.709955 -3.3822 7.39129 1.39082 -0.0 0.0 -0.0 4.96571 -3.71351 9.4492 12.2815 12.5327 65.7452 1.34141 -33.6021 0.405039 41.8707 -0.450122 -5.21243 -0.00765817 -4.45467 -1.93844 -0.0 0.0 -0.0 8.54263 4.80275 -16.7417 -14.9919 -20.8446 -64.4064 0.606816 16.7309 -0.0892336 68.1897 2.55472 7.80918 4.60938 -13.8677 -37.4629 0.0 0.0 0.0 19.9609 -7.66428 3.96801 -33.6077 -0.110941 5.08326 24.8916 -8.2931 -3.43396 -21.3495 0.0 0.0 -0.0 0.0 -0.0 37.7212 12.6571 3.07164 -62.1355 2.43493 -8.75641 32.9233 25.3314 4.89259 27.5319 -0.0 -0.0 0.0 0.0 0.0 
2837.29770142 706.491 -1907.50753457 -4.05697316521 32.7668838674 2.12552033788 2.01717 0.175555 -0.166814 2.01717 0.185814 -0.155305 2.01665 0.210204 -0.120253 2.01668 0.188574 -0.151942 -2.75171 4.68237 1.2817 -2.72683 7.49377 1.99889 -0.0 0.0 -0.0 5.161 -3.7244 9.84112 11.9063 9.84726 64.2397 1.78553 -41.4889 0.676324 44.7082 -0.616533 -5.53505 -0.122915 -2.10809 -1.71571 -0.0 0.0 -0.0 8.94086 4.24578 -17.5722 -15.2101 -20.5024 -61.2494 0.520925 14.4698 -0.0661308 68.0645 2.54205 7.79932 3.94165 -10.7797 -31.3102 0.0 0.0 0.0 15.3169 -0.889253 4.50545 -22.3869 0.259653 3.40383 20.7935 -11.5294 -2.9835 -23.6446 0.0 0.0 -0.0 0.0 -0.0 41.5768 8.99676 1.81471 -54.1393 1.60146 -7.84894 27.8418 28.2299 4.43214 25.1366 -0.0 -0.0 0.0 0.0 0.0 
2812.57102059 704.655 -1913.68524552 -4.14956960441 34.479859993 1.73220974565 2.1056 0.0419399 -0.0976176 2.1056 0.0480666 -0.0947511 2.10552 0.06383 -0.0849346 2.10551 0.0496151 -0.0939494 -2.11138 4.701 1.20427 -2.08323 7.5438 1.88913 -0.0 0.0 -0.0 5.36418 -4.6045 10.2148 10.7613 7.00846 62.9422 2.02755 -45.1202 0.842402 46.4581 -0.727072 -5.7298 -0.425967 1.66072 -2.13305 -0.0 0.0 -0.0 8.74947 3.55674 -17.1664 -16.7703 -21.6717 -60.765 0.477343 13.3041 -0.0556702 66.9828 2.43344 7.71291 3.82381 -10.2749 -30.2583 0.0 0.0 0.0 10.8448 0.63329 6.39475 -15.1964 0.321917 2.30302 19.6247 -14.7612 -2.89234 -26.0231 0.0 0.0 -0.0 0.0 -0.0 43.327 6.14932 1.2916 -47.1053 0.979512 -6.96274 24.3324 30.0637 4.05658 24.2862 -0.0 -0.0 0.0 0.0 0.0 
2789.74587539 702.31 -1926.18129998 -5.29636781771 35.5143258304 2.52021929548 2.34998 0.0141572 -0.205221 2.35 0.0271872 -0.203904 2.3499 0.0614382 -0.196319 2.34985 0.0296622 -0.203559 -0.651366 4.26153 0.837265 -0.621673 6.95019 1.37929 -0.0 0.0 -0.0 5.34242 -5.64661 10.1257 9.06334 4.02719 63.06 2.21642 -47.6668 0.979202 48.3515 -0.853339 -5.93667 -0.202538 0.883718 -0.977217 -0.0 0.0 -0.0 8.75274 0.587796 -17.1204 -19.1263 -20.9027 -59.1522 0.510848 14.2013 -0.0636357 67.3141 2.46653 7.73959 3.8519 -7.55089 -29.5699 0.0 0.0 0.0 7.72346 1.09147 7.64638 -9.59388 0.27456 1.44504 18.6679 -15.5818 -2.78115 -26.8104 0.0 0.0 -0.0 0.0 -0.0 44.889 3.06074 2.21468 -42.9723 0.666609 -6.40928 22.3672 30.4865 3.79653 22.1589 -0.0 -0.0 0.0 0.0 0.0 
2773.26832578 701.503 -1942.46893851 -6.65580694871 35.3281213539 2.96954547986 2.61239 0.0492452 -0.11492 2.61239 0.056458 -0.111553 2.61228 0.0741313 -0.100679 2.61227 0.0573007 -0.111123 0.0562881 3.81595 0.353102 0.0854951 6.5081 0.781146 -0.0 0.0 -0.0 4.83755 -5.49557 9.10534 8.10789 1.73606 63.6865 2.3782 -49.667 1.1007 48.7182 -0.87858 -5.97624 -0.0798859 1.39124 0.0538821 -0.0 0.0 -0.0 8.7019 -0.674935 -16.9813 -19.8512 -22.5461 -58.7417 0.486039 13.5376 -0.0576885 66.025 2.33867 7.63472 3.73923 -7.9604 -28.8607 0.0 0.0 0.0 5.74473 1.91671 8.45942 -6.12221 0.20322 0.917156 17.8596 -16.5575 -2.69125 -28.1491 0.0 0.0 -0.0 0.0 -0.0 46.6267 1.96514 2.72306 -42.0662 0.603427 -6.28508 20.0925 30.1316 3.44121 22.8086 -0.0 -0.0 0.0 0.0 0.0 
